# xmcd CD database file
#
# Track frame offsets:
#	150
#	28105
#	42447
#	62750
#	81245
#	110145
#	133015
#	151987
#	171040
#	191987
#	210380
#	229740
#	243807
#	272480
#	289572
#	304227
#
# Disc length: 4242 seconds
#
# Revision: 0
# Processed by: cddbd v1.5.2PL0 Copyright (c) Steve Scherf et al.
# Submitted via: CDex 1.51
#
DISCID=e1109010
DTITLE=Houston Person - Broken Windows, Empty Hallways | Sweet Buns and Barbeque
DYEAR=2004
DGENRE=Jazz
TTITLE0=I Think It's Going To Rain Today
TTITLE1=Don't Mess With Bill
TTITLE2=Everything's Alright
TTITLE3=Mr. Bojangles
TTITLE4=Houston's Blues
TTITLE5=Imagine
TTITLE6=Let's Call This
TTITLE7=The Pimp (Bleeker Street)
TTITLE8=A Song For You
TTITLE9=The Trouble With Hello Is Goodbye
TTITLE10=Scared To Be Alone
TTITLE11=Sweet Buns and Barbeque
TTITLE12=This Masquerade
TTITLE13=Down Here On The Ground
TTITLE14=Put It Where You Want It
TTITLE15=Groove Thang
EXTD=YEAR: 2004
EXTT0=
EXTT1=
EXTT2=
EXTT3=
EXTT4=
EXTT5=
EXTT6=
EXTT7=
EXTT8=
EXTT9=
EXTT10=
EXTT11=
EXTT12=
EXTT13=
EXTT14=
EXTT15=
PLAYORDER=
